<svg width="119" height="72" viewBox="0 0 119 72" fill="none" xmlns="http://www.w3.org/2000/svg">
<path d="M2.424 48C2.024 48 1.824 47.8 1.824 47.4V16.608C1.824 16.208 2.024 16.008 2.424 16.008H17.352C17.72 16.008 18.04 16.136 18.312 16.392L23.112 21.192C23.368 21.464 23.496 21.784 23.496 22.152V27.192C23.496 27.352 23.464 27.48 23.4 27.576C23.336 27.672 23.24 27.784 23.112 27.912L19.344 31.272L18.96 32.016L19.344 32.808L23.112 36.168C23.24 36.296 23.336 36.408 23.4 36.504C23.464 36.584 23.496 36.712 23.496 36.888V41.832C23.496 42.216 23.368 42.536 23.112 42.792L18.312 47.592C18.04 47.864 17.72 48 17.352 48H2.424ZM12.48 41.088C13.408 41.088 14.088 40.864 14.52 40.416C14.968 39.952 15.192 39.224 15.192 38.232C15.192 37.24 14.968 36.52 14.52 36.072C14.088 35.608 13.408 35.376 12.48 35.376C11.552 35.376 10.864 35.608 10.416 36.072C9.984 36.52 9.768 37.24 9.768 38.232C9.768 39.224 9.984 39.952 10.416 40.416C10.864 40.864 11.552 41.088 12.48 41.088ZM12.408 28.56C13.32 28.56 13.992 28.336 14.424 27.888C14.856 27.424 15.072 26.712 15.072 25.752C15.072 24.792 14.856 24.088 14.424 23.64C13.992 23.192 13.32 22.968 12.408 22.968C11.512 22.968 10.848 23.192 10.416 23.64C9.984 24.088 9.768 24.792 9.768 25.752C9.768 26.712 9.984 27.424 10.416 27.888C10.848 28.336 11.512 28.56 12.408 28.56ZM29.4435 48C29.0435 48 28.8435 47.8 28.8435 47.4V16.608C28.8435 16.208 29.0435 16.008 29.4435 16.008H36.5475C36.9475 16.008 37.1475 16.208 37.1475 16.608V47.4C37.1475 47.8 36.9475 48 36.5475 48H29.4435ZM47.6689 48C47.3009 48 46.9809 47.864 46.7089 47.592L41.9089 42.792C41.6369 42.536 41.5009 42.216 41.5009 41.832V27.768C41.5009 27.384 41.6369 27.064 41.9089 26.808L46.7089 22.008C46.9809 21.736 47.3009 21.6 47.6689 21.6H54.9409C55.3249 21.6 55.6449 21.736 55.9009 22.008L60.7009 26.808C60.9729 27.064 61.1089 27.384 61.1089 27.768V41.832C61.1089 42.216 60.9729 42.536 60.7009 42.792L55.9009 47.592C55.6449 47.864 55.3249 48 54.9409 48H47.6689ZM50.9329 40.992H51.6529C52.0529 40.992 52.3409 40.904 52.5169 40.728C52.7089 40.536 52.8049 40.232 52.8049 39.816V29.784C52.8049 29.368 52.7089 29.072 52.5169 28.896C52.3409 28.704 52.0529 28.608 51.6529 28.608H50.9329C50.5169 28.608 50.2209 28.704 50.0449 28.896C49.8849 29.072 49.8049 29.368 49.8049 29.784V39.816C49.8049 40.232 49.8929 40.536 50.0689 40.728C50.2449 40.904 50.5329 40.992 50.9329 40.992ZM73.7081 57.168C73.3081 57.168 73.1081 56.968 73.1081 56.568V52.464C73.1081 52.128 73.2041 51.912 73.3961 51.816L75.9401 50.352L77.9561 48.816C78.1641 48.64 78.2681 48.392 78.2681 48.072V45.504L76.6361 47.064C76.3641 47.336 76.0441 47.472 75.6761 47.472L72.5321 47.544C72.1641 47.544 71.8441 47.408 71.5721 47.136L66.9401 42.504C66.6681 42.248 66.5321 41.928 66.5321 41.544V27.768C66.5321 27.384 66.6681 27.064 66.9401 26.808L71.7401 22.008C72.0121 21.736 72.3321 21.6 72.7001 21.6H85.5401C85.9401 21.6 86.1401 21.8 86.1401 22.2V51.264C86.1401 51.68 86.0041 52 85.7321 52.224L83.0921 54.408L79.7081 56.832C79.5161 56.944 79.3481 57.024 79.2041 57.072C79.0761 57.136 78.9001 57.168 78.6761 57.168H73.7081ZM75.9641 40.704H76.7081C77.1081 40.704 77.3961 40.608 77.5721 40.416C77.7481 40.224 77.8361 39.928 77.8361 39.528V28.608H75.9881C75.5881 28.608 75.2921 28.704 75.1001 28.896C74.9241 29.072 74.8361 29.368 74.8361 29.784V39.528C74.8361 39.928 74.9241 40.224 75.1001 40.416C75.2761 40.608 75.5641 40.704 75.9641 40.704Z" fill="black"/>
<path d="M88.6718 71.7441C86.6795 72.6632 86.6795 70.825 87.5731 70.6411C88.4667 70.4573 87.5731 59.9203 87.5731 59.9203C87.5731 59.5379 87.5877 59.2438 87.617 59.0379C87.6756 58.8026 87.8514 58.5967 88.1444 58.4202L98.3842 53.0819V48.5376L88.2762 42.8022C87.8075 42.5081 87.5731 42.0669 87.5731 41.4786V23.1253C87.5731 22.6547 87.6024 22.3164 87.661 22.1105C87.7196 21.8752 87.9247 21.6252 88.2762 21.3605L99.8784 13.5074C100.142 13.3309 100.391 13.1985 100.626 13.1103C100.889 12.9927 101.226 12.9338 101.636 12.9338L117.809 12C118.541 12 120.556 14.0368 116.754 14.0368V24.8018C116.754 25.4488 116.535 25.89 116.095 26.1253L104.581 31.0666V35.7873L116.095 42.4051C116.535 42.611 116.754 43.0816 116.754 43.8169V63.0086C116.754 63.2439 116.71 63.4939 116.622 63.7586C116.564 63.9939 116.417 64.1851 116.183 64.3321L102.383 71.2147C102.208 71.3323 101.988 71.45 101.724 71.5676C101.49 71.6853 101.255 71.7441 101.021 71.7441C101.021 71.7441 90.6641 70.8249 88.6718 71.7441Z" fill="#CB1100"/>
</svg>
